<svg xmlns="http://www.w3.org/2000/svg" width="38" height="38" viewBox="0 0 38 38" fill="none"><path d="M33.25 2.48481C33.8799 2.48481 34.484 2.74661 34.9294 3.2126C35.3748 3.67859 35.625 4.31061 35.625 4.96963V24.8481C35.625 25.5072 35.3748 26.1392 34.9294 26.6052C34.484 27.0712 33.8799 27.333 33.25 27.333H10.4832C9.22357 27.3332 8.01559 27.857 7.125 28.7891L2.375 33.7587V4.96963C2.375 4.31061 2.62522 3.67859 3.07062 3.2126C3.51602 2.74661 4.12011 2.48481 4.75 2.48481H33.25ZM4.75 0C3.49022 0 2.28204 0.523584 1.39124 1.45557C0.500445 2.38756 0 3.6516 0 4.96963L0 36.7579C4.99103e-05 37.0037 0.0698074 37.244 0.200444 37.4483C0.33108 37.6527 0.516722 37.8119 0.733873 37.9058C0.951025 37.9997 1.18992 38.0241 1.42034 37.9759C1.65075 37.9277 1.86231 37.809 2.02825 37.635L8.80412 30.5458C9.24942 30.0798 9.85341 29.8179 10.4832 29.8178H33.25C34.5098 29.8178 35.718 29.2942 36.6088 28.3622C37.4996 27.4302 38 26.1662 38 24.8481V4.96963C38 3.6516 37.4996 2.38756 36.6088 1.45557C35.718 0.523584 34.5098 0 33.25 0L4.75 0Z" fill="#4E7661"></path><path d="M13.5605 7.45435C11.7572 7.45435 10.2949 8.01053 10.2949 8.69675C10.2949 9.38284 11.7572 9.93916 13.5605 9.93916H24.446C26.2497 9.93916 27.7116 9.38284 27.7116 8.69675C27.7116 8.01053 26.2497 7.45435 24.446 7.45435H13.5605Z" fill="#4E7661"></path><path d="M12.9668 13.2522C11.4913 13.2522 10.2949 13.8084 10.2949 14.4946C10.2949 15.1807 11.4913 15.737 12.9668 15.737H21.873C23.3488 15.737 24.5449 15.1807 24.5449 14.4946C24.5449 13.8084 23.3488 13.2522 21.873 13.2522H12.9668Z" fill="#4E7661"></path><path d="M12.0762 19.05C11.0925 19.05 10.2949 19.6062 10.2949 20.2925C10.2949 20.9785 11.0925 21.5349 12.0762 21.5349H18.0137C18.9975 21.5349 19.7949 20.9785 19.7949 20.2925C19.7949 19.6062 18.9975 19.05 18.0137 19.05H12.0762Z" fill="#4E7661"></path></svg>