<svg xmlns="http://www.w3.org/2000/svg" width="42" height="30" viewBox="0 0 42 30" fill="none"><path d="M27.2422 21.0856C27.2422 20.5096 27.7092 20.0427 28.285 20.0427H33.4279C34.0039 20.0427 34.4708 20.5096 34.4708 21.0856C34.4708 21.6615 34.0039 22.1284 33.4279 22.1284H28.285C27.7092 22.1284 27.2422 21.6614 27.2422 21.0856Z" fill="#4E7661" stroke="#4E7661"></path><path d="M2.57143 10.6429H2.07143V11.1429V24.4286C2.07143 25.8883 3.25468 27.0714 4.71428 27.0714H36.4286C37.8883 27.0714 39.0714 25.8883 39.0714 24.4286V11.1429V10.6429H38.5714H2.57143ZM2.07143 8.57143V9.07143H2.57143H38.5714H39.0714V8.57143V4.71429C39.0714 3.25468 37.8883 2.07143 36.4286 2.07143H4.71428C3.25467 2.07143 2.07143 3.25467 2.07143 4.71429V8.57143ZM0.5 4.71429C0.5 2.38681 2.38681 0.5 4.71428 0.5H36.4286C38.7561 0.5 40.6429 2.3868 40.6429 4.71429V24.4286C40.6429 26.7561 38.7561 28.6429 36.4286 28.6429H4.71428C2.3868 28.6429 0.5 26.7561 0.5 24.4286V4.71429Z" fill="#4E7661" stroke="#4E7661"></path></svg>