<svg xmlns="http://www.w3.org/2000/svg" width="58" height="58" viewBox="0 0 58 58" fill="none"><path d="M17.0022 45.9167C19.6526 45.9167 21.8012 43.7527 21.8012 41.0833C21.8012 38.414 19.6526 36.25 17.0022 36.25C14.3517 36.25 12.2031 38.414 12.2031 41.0833C12.2031 43.7527 14.3517 45.9167 17.0022 45.9167Z" stroke="#4E7661" stroke-width="2" stroke-linecap="round" stroke-linejoin="round"></path><path d="M40.9983 45.9167C43.6487 45.9167 45.7973 43.7527 45.7973 41.0833C45.7973 38.414 43.6487 36.25 40.9983 36.25C38.3478 36.25 36.1992 38.414 36.1992 41.0833C36.1992 43.7527 38.3478 45.9167 40.9983 45.9167Z" stroke="#4E7661" stroke-width="2" stroke-linecap="round" stroke-linejoin="round"></path><path d="M24.2029 21.7502L19.4039 26.5835M12.2053 41.0835H7.40625V14.5002C7.40625 13.8592 7.65906 13.2445 8.10906 12.7913C8.55905 12.3381 9.16938 12.0835 9.80578 12.0835H31.4015V26.5835H19.4039L24.2029 31.4168L12.2053 41.0835Z" stroke="#4E7661" stroke-width="2" stroke-linecap="round" stroke-linejoin="round"></path><path d="M21.8027 41.0835H36.1999" stroke="#4E7661" stroke-width="2" stroke-linecap="round" stroke-linejoin="round"></path><path d="M31.4004 14.5H43.398L50.5966 26.5833V41.0833H45.7976" stroke="#4E7661" stroke-width="2" stroke-linecap="round" stroke-linejoin="round"></path></svg>