<svg xmlns="http://www.w3.org/2000/svg" width="38" height="41" viewBox="0 0 38 41" fill="none"><path d="M17.0574 1.50339C18.2654 0.832208 19.7344 0.832208 20.9426 1.50337L35.9712 9.85267C36.6062 10.2054 37 10.8746 37 11.601V28.0706C37 29.5232 36.2124 30.8618 34.9426 31.5672L20.9426 39.345C19.7344 40.0162 18.2654 40.0162 17.0574 39.345L3.05742 31.5672C1.78756 30.8618 1 29.5232 1 28.0706V11.601C1 10.8746 1.39378 10.2054 2.02872 9.85267L17.0574 1.50339Z" stroke="#4E7661" stroke-width="2" stroke-linecap="round" stroke-linejoin="round"></path><path d="M10 5.42407L28 15.4241V22.4241" stroke="#4E7661" stroke-width="2" stroke-linecap="round" stroke-linejoin="round"></path><path d="M7 21.0803L13 24.4241" stroke="#4E7661" stroke-width="2" stroke-linecap="round" stroke-linejoin="round"></path><path d="M19 20.4241V40.4241M1 10.4241L19 20.4241L1 10.4241ZM19 20.4241L37 10.4241L19 20.4241Z" stroke="#4E7661" stroke-width="2" stroke-linejoin="round"></path></svg>